Coordinates
version=1
nRows=14
nColumns=46
inDegrees=yes

Units are S.I. units (second, meters, Newtons, ...)
Angles are in degrees.

endheader
time	pelvis_tilt	pelvis_list	pelvis_rotation	pelvis_tx	pelvis_ty	pelvis_tz	bb_angle	bb_tx	bb_ty	bb_tz	hip_flexion_r	hip_adduction_r	hip_rotation_r	knee_angle_r	knee_angle_r_beta	ankle_angle_r	subtalar_angle_r	mtp_angle_r	crank_angle_r	hip_flexion_l	hip_adduction_l	hip_rotation_l	knee_angle_l	knee_angle_l_beta	ankle_angle_l	subtalar_angle_l	mtp_angle_l	crank_angle_l	lumbar_extension	lumbar_bending	lumbar_rotation	arm_flex_r	arm_add_r	arm_rot_r	elbow_flex_r	pro_sup_r	wrist_flex_r	wrist_dev_r	arm_flex_l	arm_add_l	arm_rot_l	elbow_flex_l	pro_sup_l	wrist_flex_l	wrist_dev_l
      2.50000000	    -12.03294273	     -0.39004560	     -2.36655164	      0.15556917	      1.07028141	     -0.30469039	      0.00000000	      0.50000000	      0.00000000	      0.25000000	     71.69827865	      0.97240073	      6.28889694	    105.82310524	      1.84696161	     -1.99121202	    -14.56184522	      0.00000000	      0.00000000	     51.37071438	     -8.23526776	     -1.18037635	     38.30378780	      0.66852721	    -14.84815120	     -1.38934531	      0.00000000	      0.00000000	    -65.39708606	    -11.24434361	      0.40037709	     89.07163908	    -16.42775629	     21.29425185	     42.66929189	     38.85828670	      0.00000000	      0.00000000	     89.33830561	     -0.62802170	     19.29050594	     58.16446964	     37.73831040	      0.00000000	      0.00000000
      2.50500000	    -11.81636833	     -0.52633508	     -2.56586560	      0.15590149	      1.06982016	     -0.30461648	      0.00000000	      0.50000000	      0.00000000	      0.25000000	     72.31440498	      1.07953394	      6.21993022	    106.74562338	      1.86306259	     -1.65875430	    -14.12446143	      0.00000000	      0.00000000	     50.58541849	     -8.48907938	     -1.26500222	     37.62672343	      0.65671021	    -15.62416586	     -1.10269608	      0.00000000	      0.00000000	    -65.14430132	    -11.23309397	      0.58683079	     89.15671048	    -16.01904268	     22.49324493	     40.80499431	     38.38001366	      0.00000000	      0.00000000	     89.34764223	     -0.55581204	     19.68432835	     56.31263953	     37.34982642	      0.00000000	      0.00000000
      2.51000000	    -11.55725701	     -0.72360532	     -2.75691454	      0.15626682	      1.06950257	     -0.30460258	      0.00000000	      0.50000000	      0.00000000	      0.25000000	     72.86206460	      1.16063247	      6.02470203	    107.63342580	      1.87855767	     -1.29898378	    -13.86154480	      0.00000000	      0.00000000	     49.76272456	     -8.79886385	     -1.41493971	     36.94524428	      0.64481616	    -16.54405394	     -0.82834434	      0.00000000	      0.00000000	    -65.10157782	    -11.13082762	      0.93213297	     89.17853383	    -15.85959553	     22.96193919	     40.41289710	     38.03696158	      0.00000000	      0.00000000	     89.30657606	     -0.55494407	     19.65425079	     55.76573773	     37.18118917	      0.00000000	      0.00000000
      2.51500000	    -11.26218220	     -0.92051879	     -2.94473273	      0.15660389	      1.06939427	     -0.30439934	      0.00000000	      0.50000000	      0.00000000	      0.25000000	     73.33052985	      1.29510920	      5.84400763	    108.45247538	      1.89285278	     -0.96758777	    -13.73319848	      0.00000000	      0.00000000	     48.86630707	     -9.10570807	     -1.54490593	     36.17814869	      0.63142781	    -17.62098230	     -0.55208441	      0.00000000	      0.00000000	    -65.22751689	    -11.05859140	      1.29109642	     89.13862509	    -15.80267697	     22.53646916	     40.92781931	     38.19443502	      0.00000000	      0.00000000	     89.24537719	     -0.52754251	     19.36326688	     55.90931191	     37.45216133	      0.00000000	      0.00000000
      2.52000000	    -11.11824427	     -1.08781150	     -3.14990159	      0.15690244	      1.06874610	     -0.30436149	      0.00000000	      0.50000000	      0.00000000	      0.25000000	     74.06215286	      1.33408497	      5.67211102	    109.32871270	      1.90814600	     -0.74408737	    -12.96224829	      0.00000000	      0.00000000	     48.25415198	     -9.38690328	     -1.67102373	     35.70204805	      0.62311829	    -18.45349064	     -0.40838870	      0.00000000	      0.00000000	    -64.94291244	    -10.98950338	      1.50887708	     89.18896127	    -15.33918731	     23.26081789	     39.59794050	     37.82324265	      0.00000000	      0.00000000	     89.23073926	     -0.59441375	     19.65030925	     54.46860986	     37.17549547	      0.00000000	      0.00000000
      2.52500000	    -11.20715857	     -1.45627130	     -3.29007466	      0.15706515	      1.06757710	     -0.30431664	      0.00000000	      0.50000000	      0.00000000	      0.25000000	     75.02144779	      1.45376086	      5.26856483	    110.17498757	      1.92291629	     -0.28596478	    -12.65473152	      0.00000000	      0.00000000	     48.06884201	     -9.81759268	     -1.56470927	     35.45671270	      0.61883638	    -19.24086358	      0.07658772	      0.00000000	      0.00000000	    -64.69129770	    -10.73000556	      1.87152548	     89.10272905	    -15.23858995	     22.62763089	     40.78682289	     38.16781288	      0.00000000	      0.00000000	     89.08863095	     -0.71931643	     19.11464520	     55.26695193	     37.58344218	      0.00000000	      0.00000000
      2.53000000	    -10.71210684	     -1.46804702	     -3.50451755	      0.15745439	      1.06780802	     -0.30426212	      0.00000000	      0.50000000	      0.00000000	      0.25000000	     75.30552189	      1.44821219	      5.24629186	    110.92532725	      1.93601218	     -0.00268699	    -12.47058636	      0.00000000	      0.00000000	     46.90222677	     -9.93619550	     -1.86588643	     34.67881502	      0.60525950	    -20.43080838	     -0.15295600	      0.00000000	      0.00000000	    -64.72180969	    -10.71050682	      2.10809247	     89.21484042	    -14.72227931	     23.68171937	     38.72410774	     37.61899665	      0.00000000	      0.00000000	     89.14187677	     -0.74012440	     19.70949260	     53.12377208	     37.23087253	      0.00000000	      0.00000000
      2.53500000	    -10.51450365	     -1.64655129	     -3.67811473	      0.15765200	      1.06728444	     -0.30415302	      0.00000000	      0.50000000	      0.00000000	      0.25000000	     75.92997556	      1.50622838	      5.08112984	    111.66243195	      1.94887709	      0.40125785	    -12.34618451	      0.00000000	      0.00000000	     46.28191066	    -10.20629986	     -1.98577157	     34.27023112	      0.59812837	    -21.36426004	     -0.03988418	      0.00000000	      0.00000000	    -64.60867962	    -10.59732936	      2.40398719	     89.21890250	    -14.48610121	     24.02273155	     38.29597262	     37.40275200	      0.00000000	      0.00000000	     89.10038070	     -0.79249889	     19.78816036	     52.44024760	     37.23799286	      0.00000000	      0.00000000
      2.54000000	    -10.15240029	     -1.80308960	     -3.90119954	      0.15785545	      1.06715956	     -0.30406065	      0.00000000	      0.50000000	      0.00000000	      0.25000000	     76.35933874	      1.59273403	      4.84744690	    112.34534715	      1.96079621	      0.51217579	    -12.56702378	      0.00000000	      0.00000000	     45.43668092	    -10.47353613	     -2.17094084	     33.81662860	      0.59021151	    -22.36373058	     -0.02319135	      0.00000000	      0.00000000	    -64.81720909	    -10.54185650	      2.74470358	     89.18957254	    -14.45820286	     23.54786779	     38.81005626	     37.55611160	      0.00000000	      0.00000000	     89.04225662	     -0.82981957	     19.50456141	     52.79398746	     37.45959373	      0.00000000	      0.00000000
      2.54500000	    -10.15987097	     -1.91161192	     -3.99310346	      0.15806704	      1.06633986	     -0.30418429	      0.00000000	      0.50000000	      0.00000000	      0.25000000	     77.19626689	      1.51734479	      4.72910815	    113.02904484	      1.97272898	      1.06907526	    -11.89759465	      0.00000000	      0.00000000	     45.07953777	    -10.59222130	     -2.18496901	     33.46825171	      0.58413119	    -23.43493340	     -0.03632441	      0.00000000	      0.00000000	    -64.40541010	    -10.34755749	      2.94499883	     89.22069497	    -14.00703570	     24.05889163	     37.74866981	     37.48423538	      0.00000000	      0.00000000	     89.03345217	     -0.85080453	     19.74281990	     51.16187749	     37.57670735	      0.00000000	      0.00000000
      2.55000000	    -10.05005177	     -1.98210383	     -4.17948568	      0.15815928	      1.06570240	     -0.30416857	      0.00000000	      0.50000000	      0.00000000	      0.25000000	     77.92184364	      1.52462269	      4.61611991	    113.69638080	      1.98437619	      1.60950358	    -11.76448782	      0.00000000	      0.00000000	     44.58950118	    -10.75306329	     -2.32374338	     33.14372359	      0.57846710	    -24.45886321	     -0.07715562	      0.00000000	      0.00000000	    -64.20751796	    -10.24605471	      3.20339767	     89.22575274	    -13.49943000	     23.54019567	     37.04387239	     38.03143190	      0.00000000	      0.00000000	     89.00834275	     -0.78860186	     19.57430920	     50.03455279	     38.63431220	      0.00000000	      0.00000000
      2.55500000	    -10.01598942	     -2.15807275	     -4.32500225	      0.15820761	      1.06510784	     -0.30409995	      0.00000000	      0.50000000	      0.00000000	      0.25000000	     78.67375861	      1.56134394	      4.42334756	    114.26578222	      1.99431412	      2.03908105	    -11.47266819	      0.00000000	      0.00000000	     44.21785881	    -10.96019817	     -2.28901418	     32.87740571	      0.57381898	    -25.42995700	     -0.16256088	      0.00000000	      0.00000000	    -63.96686242	    -10.06039558	      3.56470416	     89.24317575	    -13.46742896	     24.62734874	     36.55708995	     37.68904962	      0.00000000	      0.00000000	     88.97217504	     -0.92300561	     19.94036031	     49.34433666	     38.41769129	      0.00000000	      0.00000000
      2.56000000	     -9.80951753	     -2.30226127	     -4.57019582	      0.15830949	      1.06484038	     -0.30424535	      0.00000000	      0.50000000	      0.00000000	      0.25000000	     79.21039119	      1.61808932	      4.25342687	    114.77315349	      2.00316942	      2.47104997	    -11.16889120	      0.00000000	      0.00000000	     43.64388439	    -11.20349864	     -2.44624807	     32.63412901	      0.56957300	    -26.47458342	     -0.23972330	      0.00000000	      0.00000000	    -63.94037411	     -9.96224674	      3.89731671	     89.25845602	    -13.22158518	     24.16874494	     36.42235912	     38.02915888	      0.00000000	      0.00000000	     88.95938070	     -0.88668022	     19.75935212	     48.64776223	     39.03238817	      0.00000000	      0.00000000
      2.56500000	     -9.69153587	     -2.48848409	     -4.74720148	      0.15837256	      1.06445882	     -0.30434204	      0.00000000	      0.50000000	      0.00000000	      0.25000000	     79.81122253	      1.66669189	      4.02590536	    115.23986404	      2.01131506	      2.83939418	    -11.04163449	      0.00000000	      0.00000000	     43.22027938	    -11.44346748	     -2.51298082	     32.46079907	      0.56654782	    -27.50898984	     -0.34689590	      0.00000000	      0.00000000	    -63.82888137	     -9.77848991	      4.28045663	     89.28814732	    -13.54974422	     26.13602156	     36.36830554	     37.71830862	      0.00000000	      0.00000000	     88.92235387	     -1.09236298	     20.28868943	     48.20272317	     39.30550107	      0.00000000	      0.00000000
